<svg id="Capa_1" enable-background="new 0 0 512 512" height="512" viewBox="0 0 512 512" width="512" xmlns="http://www.w3.org/2000/svg"><g><path d="m100.236 304.991c-10.487 0-20.129 3.598-27.78 9.612v47.398h5.237c7.576 0 13.741 6.165 13.741 13.74 0 4.356-2.013 8.363-5.524 10.993-.532.399-.846 1.026-.846 1.692s.314 1.293.846 1.692c3.511 2.629 5.524 6.635 5.524 10.991s-2.013 8.361-5.524 10.991c-.532.398-.846 1.027-.846 1.692s.314 1.292.846 1.691c3.511 2.631 5.524 6.637 5.524 10.993s-2.013 8.362-5.524 10.993c-.532.399-.846 1.026-.846 1.691 0 .666.314 1.294.846 1.692 3.511 2.629 5.524 6.634 5.524 10.99 0 7.577-6.165 13.741-13.741 13.741h-5.237v38.917h328.978v-199.509z" fill="#26a6fe"/><path d="m152.604 304.991h-52.369c-10.487 0-20.129 3.598-27.78 9.612v47.398h5.237c7.576 0 13.741 6.165 13.741 13.74 0 4.356-2.013 8.363-5.524 10.993-.532.399-.846 1.026-.846 1.692s.314 1.293.846 1.692c3.511 2.629 5.524 6.635 5.524 10.991s-2.013 8.361-5.524 10.991c-.532.398-.846 1.027-.846 1.692s.314 1.292.846 1.691c3.511 2.631 5.524 6.637 5.524 10.993s-2.013 8.362-5.524 10.993c-.532.399-.846 1.026-.846 1.691 0 .666.314 1.294.846 1.692 3.511 2.629 5.524 6.634 5.524 10.99 0 7.577-6.165 13.741-13.741 13.741h-5.237v38.917h45.148c-5.523 0-10-4.477-10-10v-144.509c.001-24.853 20.148-45 45.001-45z" fill="#0593fc"/><g><g><path d="m207.434 465.582h-86c-1.657 0-3-1.343-3-3v-54c0-1.657 1.343-3 3-3h86c1.657 0 3 1.343 3 3v54c0 1.657-1.344 3-3 3z" fill="#fff"/></g><g><path d="m149 462.582v-54c0-1.657 1.343-3 3-3h-30.566c-1.657 0-3 1.343-3 3v54c0 1.657 1.343 3 3 3h30.566c-1.657 0-3-1.343-3-3z" fill="#f3f0f3"/></g></g><g><g><path d="m151.434 147.835h12.114v-26.792c0-15.247 12.404-27.651 27.651-27.651h132.469c15.247 0 27.651 12.404 27.651 27.651v26.792h12.114c6.871 0 13.198 2.315 18.256 6.201v-40.057c0-58.807-47.672-106.479-106.479-106.479h-35.553c-58.807 0-106.479 47.672-106.479 106.479v40.057c5.058-3.885 11.385-6.201 18.256-6.201z" fill="#b5adb6"/><path d="m151.434 147.835h11.114v-26.792c0-10.424 5.568-19.546 13.891-24.559 8.181-49.479 50.468-87.447 101.906-88.935-1.042-.03-2.086-.049-3.135-.049h-35.553c-58.807 0-106.479 47.672-106.479 106.479v40.057c5.058-3.885 11.385-6.201 18.256-6.201z" fill="#a79ba7"/><path d="m278.464 282.164h-42.061c-5.808 0-11.452-.686-16.873-1.954v24.781l37.904 109.009 37.904-109.009v-24.781c-5.421 1.268-11.066 1.954-16.874 1.954z" fill="#ea9b58"/><g><path d="m257.433 340c1.908 0 3.801-.06 5.685-.156l-9.345-26.877c-1.836-5.28-2.773-10.831-2.773-16.421v-14.382h-14.597c-5.808 0-11.452-.686-16.873-1.954v24.781l11.032 31.727c8.605 2.139 17.604 3.282 26.871 3.282z" fill="#d88a55"/></g><g fill="#ea9b58"><path d="m162.547 208.308v-60.473h-11.114c-16.569 0-30 13.431-30 30v11.165c0 16.569 13.431 30 30 30h11.894c-.506-3.492-.78-7.06-.78-10.692z"/><path d="m363.434 147.835h-11.114v60.473c0 3.632-.274 7.2-.781 10.692h11.894c16.569 0 30-13.431 30-30v-11.165c.001-16.568-13.431-30-29.999-30z"/></g><g><path d="m278.464 282.164h-42.061c-40.789 0-73.856-33.066-73.856-73.856v-87.265c0-15.824 12.828-28.651 28.651-28.651h132.47c15.824 0 28.651 12.828 28.651 28.651v87.265c.001 40.79-33.066 73.856-73.855 73.856z" fill="#f6a96c"/></g><g><path d="m194 208.308v-87.265c0-15.824 12.828-28.651 28.651-28.651h-31.453c-15.824 0-28.651 12.828-28.651 28.651v87.265c0 40.789 33.066 73.856 73.856 73.856h31.453c-40.79 0-73.856-33.066-73.856-73.856z" fill="#ea9b58"/></g></g></g><g><path d="m257.433 340c-9.267 0-18.267-1.143-26.872-3.283l26.872 77.283 26.872-77.283c-8.605 2.14-17.604 3.283-26.872 3.283z" fill="#554e56"/></g><g fill="#05e39c"><path d="m44.122 362 28.334.001v-119.501c0-2.761-2.239-5-5-5h-22.912c-2.761 0-5 2.239-5 5v119.95c1.482-.293 3.011-.45 4.578-.45z"/><path d="m44.122 465.582c-1.566 0-3.096-.157-4.577-.45v34.368c0 2.761 2.239 5 5 5h27.912v-38.918z"/></g><g fill="#0ed290"><path d="m56 242.5c0-2.761 2.239-5 5-5h-16.456c-2.761 0-5 2.239-5 5v90.5h16.456z"/><path d="m56 499.5v-33.918h-11.878c-1.566 0-3.096-.157-4.577-.45v34.368c0 2.761 2.239 5 5 5h16.455c-2.761 0-5-2.239-5-5z"/></g><path d="m44.122 362 28.334.001v-29.001h-32.912v29.45c1.482-.293 3.011-.45 4.578-.45z" fill="#b5adb6"/><path d="m44.122 362h11.878v-29h-16.456v29.45c1.482-.293 3.011-.45 4.578-.45z" fill="#a79ba7"/><g><path d="m44.122 362c-12.989 0-23.555 10.567-23.555 23.556v56.471c0 12.989 10.566 23.555 23.555 23.555h33.571c7.576 0 13.741-6.164 13.741-13.741 0-4.356-2.013-8.361-5.524-10.99-.532-.399-.846-1.026-.846-1.692 0-.665.314-1.292.846-1.691 3.511-2.631 5.524-6.637 5.524-10.993 0-4.355-2.013-8.362-5.524-10.993-.532-.399-.846-1.026-.846-1.691s.314-1.294.846-1.692c3.511-2.63 5.524-6.635 5.524-10.991s-2.013-8.362-5.524-10.991c-.532-.399-.846-1.025-.846-1.692 0-.666.314-1.292.846-1.692 3.511-2.63 5.524-6.636 5.524-10.993 0-7.575-6.165-13.74-13.741-13.74z" fill="#f6a96c"/></g><g><path d="m47.895 445.298v-63.014c0-8.158 3.736-15.459 9.586-20.284h-13.359c-12.989 0-23.555 10.567-23.555 23.556v56.471c0 12.989 10.566 23.555 23.555 23.555h13.36c-5.851-4.824-9.587-12.126-9.587-20.284z" fill="#ea9b58"/></g><g><path d="m311.49 212.721c-11.511-13.623-31.415-22.635-54.056-22.635s-42.545 9.012-54.056 22.635h-40.688c2.284 38.734 34.406 69.443 73.713 69.443h42.061c39.307 0 71.429-30.71 73.713-69.443z" fill="#8ac9fe"/></g><g><path d="m194.143 212.721h-31.453c2.284 38.734 34.406 69.443 73.713 69.443h31.453c-39.307 0-71.429-30.71-73.713-69.443z" fill="#60b7ff"/></g><g><g><path d="m411.934 263h25v34h-25z" fill="#d8ecfe"/><path d="m447.434 302c0-2.761-2.239-5-5-5h-36c-2.761 0-5 2.239-5 5v22h46z" fill="#8ac9fe"/><g><path d="m422 302c0-2.761 2.239-5 5-5h-20.566c-2.761 0-5 2.239-5 5v22h20.566z" fill="#60b7ff"/></g></g><g><path d="m486.434 504.5h-85v-180.5h60c16.569 0 30 13.431 30 30v145.5c0 2.761-2.239 5-5 5z" fill="#05e39c"/></g><g><path d="m401.434 324h30.566v141h-30.566z" fill="#0ed290"/></g><g><path d="m401.434 504.5h85c2.761 0 5-2.239 5-5v-34.5h-90z" fill="#d8ecfe"/></g><g><path d="m401.434 465h30.566v39.5h-30.566z" fill="#c4e2ff"/></g><g><path d="m473.434 263h-65c-6.075 0-11-4.925-11-11v-6c0-6.075 4.925-11 11-11h65c1.657 0 3 1.343 3 3v22c0 1.657-1.344 3-3 3z" fill="#05e39c"/></g><g><path d="m433 252v-6c0-6.075 4.925-11 11-11h-35.566c-6.075 0-11 4.925-11 11v6c0 6.075 4.925 11 11 11h35.566c-6.075 0-11-4.925-11-11z" fill="#0ed290"/></g></g><g><path d="m110.934 408.583v54c0 5.79 4.71 10.5 10.5 10.5h86c5.79 0 10.5-4.71 10.5-10.5v-54c0-5.79-4.71-10.5-10.5-10.5h-86c-5.79 0-10.5 4.71-10.5 10.5zm15 4.5h77v45h-77z"/><path d="m179.434 375.083h-30c-4.143 0-7.5 3.358-7.5 7.5s3.357 7.5 7.5 7.5h30c4.143 0 7.5-3.358 7.5-7.5s-3.358-7.5-7.5-7.5z"/><path d="m212.434 140.5c-4.143 0-7.5 3.358-7.5 7.5v21c0 4.142 3.357 7.5 7.5 7.5s7.5-3.358 7.5-7.5v-21c0-4.142-3.358-7.5-7.5-7.5z"/><path d="m302.434 176.5c4.143 0 7.5-3.358 7.5-7.5v-21c0-4.142-3.357-7.5-7.5-7.5s-7.5 3.358-7.5 7.5v21c0 4.142 3.357 7.5 7.5 7.5z"/><path d="m491.434 405.5c4.143 0 7.5-3.358 7.5-7.5v-44c0-20.678-16.822-37.5-37.5-37.5h-6.5v-14.5c0-6.21-4.557-11.363-10.5-12.325v-19.175h.893l25.803 25.803c1.465 1.464 3.385 2.197 5.304 2.197s3.839-.732 5.304-2.197c2.929-2.929 2.929-7.678 0-10.606l-15.197-15.197h6.893c5.79 0 10.5-4.71 10.5-10.5v-22c0-5.79-4.71-10.5-10.5-10.5h-65c-10.201 0-18.5 8.299-18.5 18.5v6c0 8.827 6.218 16.218 14.5 18.052v19.623c-4.421.716-8.071 3.752-9.652 7.815h-91.944v-11.56c27.304-8.599 48.428-31.248 54.892-59.43h5.705c20.678 0 37.5-16.822 37.5-37.5v-11.165c0-10.71-4.52-20.378-11.744-27.218v-36.638c-.002-62.848-51.132-113.979-113.981-113.979h-35.553c-62.849 0-113.979 51.131-113.979 113.979v36.638c-7.224 6.84-11.744 16.508-11.744 27.218v11.165c0 20.678 16.822 37.5 37.5 37.5h5.705c6.464 28.182 27.588 50.831 54.892 59.43v11.561h-24.031c-4.143 0-7.5 3.358-7.5 7.5s3.357 7.5 7.5 7.5h26.198l35.736 102.776v81.733h-169.978v-24.042c10.652-1.134 18.978-10.169 18.978-21.116 0-4.666-1.489-9.069-4.202-12.683 2.714-3.616 4.202-8.019 4.202-12.684 0-4.666-1.49-9.071-4.201-12.685 2.713-3.615 4.201-8.018 4.201-12.682 0-4.667-1.489-9.071-4.201-12.684 2.713-3.616 4.201-8.019 4.201-12.683 0-10.947-8.326-19.982-18.978-21.116v-36.158c5.851-3.777 12.812-5.977 20.279-5.977h52.765c4.143 0 7.5-3.358 7.5-7.5s-3.357-7.5-7.5-7.5h-52.765c-7.188 0-14.037 1.462-20.279 4.091v-59.081c0-6.893-5.607-12.5-12.5-12.5h-22.912c-6.893 0-12.5 5.607-12.5 12.5v114.445c-11.142 4.721-18.978 15.768-18.978 28.611v56.472c0 12.843 7.836 23.89 18.978 28.611v28.861c0 6.893 5.607 12.5 12.5 12.5h441.89c6.893 0 12.5-5.607 12.5-12.5v-66.5c0-4.142-3.357-7.5-7.5-7.5s-7.5 3.358-7.5 7.5v24.5h-75v-126h52.5c12.406 0 22.5 10.093 22.5 22.5v44c0 4.142 3.357 7.5 7.5 7.5zm-444.39-160.5h17.912v80.5h-17.912zm0 95.5h17.912v14.001l-17.912-.001zm17.912 156.5h-17.912v-23.917h17.912zm-20.835-38.917c-8.853 0-16.055-7.202-16.055-16.055v-56.472c0-8.853 7.202-16.056 16.055-16.056l33.571.001c3.441 0 6.241 2.799 6.241 6.24 0 2-.896 3.772-2.528 4.995-2.405 1.807-3.842 4.681-3.842 7.689s1.437 5.883 3.851 7.695c1.625 1.217 2.52 2.988 2.52 4.988 0 1.999-.896 3.771-2.521 4.989-2.411 1.805-3.85 4.682-3.85 7.694 0 3.005 1.435 5.878 3.848 7.693 1.627 1.219 2.522 2.991 2.522 4.991s-.896 3.772-2.531 4.998c-2.404 1.807-3.839 4.68-3.839 7.686 0 3.011 1.438 5.886 3.85 7.695 1.625 1.217 2.521 2.989 2.521 4.988 0 3.441-2.8 6.241-6.241 6.241zm341.813-280.248v11.165c0 12.407-10.094 22.5-22.5 22.5h-3.694c.047-1.059.081-2.121.081-3.192v-52.973h3.613c12.406 0 22.5 10.094 22.5 22.5zm-234.5 33.665c-12.406 0-22.5-10.093-22.5-22.5v-11.165c0-12.407 10.094-22.5 22.5-22.5h3.613v52.973c0 1.07.034 2.133.081 3.192zm122.566-126.608h-82.801c-19.935 0-36.152 16.217-36.152 36.151v19.292h-3.613c-3.738 0-7.347.557-10.756 1.58v-27.936c0-54.577 44.402-98.979 98.979-98.979h35.553c54.577 0 98.979 44.402 98.979 98.979v27.936c-3.409-1.023-7.018-1.58-10.756-1.58h-3.613v-19.292c0-19.934-16.218-36.151-36.152-36.151h-14.668c-4.143 0-7.5 3.358-7.5 7.5s3.357 7.5 7.5 7.5h14.668c11.663 0 21.152 9.488 21.152 21.151v84.178h-29.99c-13.398-14.06-34.217-22.416-56.582-22.616l6.201-16.396c1.465-3.875-.488-8.203-4.362-9.668-3.875-1.466-8.202.487-9.669 4.362l-8.725 23.073c-16.508 2.924-31.3 10.377-41.656 21.244h-29.989v-84.178c0-11.663 9.489-21.151 21.152-21.151h82.8c4.143 0 7.5-3.358 7.5-7.5s-3.357-7.499-7.5-7.499zm-102.861 135.329h32.238c2.208 0 4.304-.973 5.729-2.659 10.569-12.508 28.636-19.976 48.328-19.976s37.759 7.467 48.327 19.975c1.425 1.687 3.521 2.66 5.729 2.66h32.239c-5.631 30.921-32.743 54.443-65.264 54.443h-42.061c-32.522 0-59.634-23.523-65.265-54.443zm55.891 83.503v-14.615c3.077.355 6.202.555 9.373.555h42.061c3.171 0 6.296-.2 9.373-.555v14.615l-9.247 26.595c-13.883 2.877-28.429 2.877-42.312 0zm14.868 42.76c10.281 1.351 20.789 1.351 31.07 0l-15.535 44.679zm152.036 150.516h-129v-81.733l35.736-102.776h93.264zm90-24.5v24.5h-75v-24.5zm-75.5-217c-1.93 0-3.5-1.57-3.5-3.5v-6c0-1.93 1.57-3.5 3.5-3.5h60.5v13zm21 15v19h-10v-19zm10.5 46h-31v-12h31z"/></g></g></svg>