<svg height="512" viewBox="0 0 512 512" width="512" xmlns="http://www.w3.org/2000/svg"><g id="Filled_outline" data-name="Filled outline"><path d="m94.674 432.107a35.253 35.253 0 0 0 55.219 43.728l60.583-79.566-57.619-52.816z" fill="#feb784"/><path d="m446.788 282.112-70.788-10.112v-32h-80v32l-86.316 18.5a64 64 0 0 0 -40.1 27.464l-16.731 25.493 57.619 52.816 21.528-28.273h16v128h176v-104h64v-62.37a48 48 0 0 0 -41.212-47.518z" fill="#fec9a3"/><path d="m342.03 272a63.811 63.811 0 0 0 33.97-9.81v-22.19h-80v22.19a63.811 63.811 0 0 0 33.97 9.81z" fill="#feb784"/><path d="m446.788 282.112-70.788-10.112a40 40 0 0 1 -80 0l-86.316 18.5a64 64 0 0 0 -40.1 27.464l-16.731 25.493 57.619 52.816 21.528-28.273h16v128h176v-104h64v-62.37a48 48 0 0 0 -41.212-47.518z" fill="#e0e0de"/><path d="m416 128h-8v48h8a24 24 0 1 0 0-48z" fill="#feb784"/><path d="m256.4 128h-.4a24 24 0 0 0 0 48h8v-48z" fill="#feb784"/><path d="m408 120v56a129.8 129.8 0 0 1 -3.88 31.52 64.008 64.008 0 0 1 -62.09 48.48h-12.06a64 64 0 0 1 -62.09-48.48 129.475 129.475 0 0 1 -3.88-31.52v-56a72.013 72.013 0 0 1 70.62-71.99c.46-.01.92-.01 1.38-.01a72.006 72.006 0 0 1 72 72z" fill="#fec9a3"/><path d="m408 120c0-.426-.057-.839-.064-1.264h-143.872c-.007.425-.064.838-.064 1.264v28.341a23.833 23.833 0 0 0 16.724 3.312l21.94-3.653a192.007 192.007 0 0 1 63.129 0l21.94 3.656a23.883 23.883 0 0 0 20.267-5.989z" fill="#fec093"/><path d="m408 120v56a129.8 129.8 0 0 1 -3.88 31.52 64.008 64.008 0 0 1 -62.09 48.48h-7.44a87.842 87.842 0 0 0 37.41-72v-64a88.165 88.165 0 0 0 -37.38-71.99c.46-.01.92-.01 1.38-.01a72.006 72.006 0 0 1 72 72z" fill="#fec093"/><path d="m301.8 89.157a174.36 174.36 0 0 0 68.4 0l5.8-1.157 32 37.333v-5.333a72 72 0 0 0 -144 0v5.331l32-37.331z" fill="#7a432a"/><path d="m424 496h-176v-96-32h176z" fill="#348fd9"/><path d="m264 496h160v-128h-28z" fill="#3086cd"/><path d="m272 392h16v16h-16z" fill="#62a9e6"/><path d="m384 392h16v16h-16z" fill="#62a9e6"/><path d="m288 368v-94.286l-40 8.572v85.714z" fill="#2d7dbf"/><path d="m424 368v-89.143l-40-5.714v94.857z" fill="#2d7dbf"/><path d="m424 392h64v104h-64z" fill="#fec9a3"/><path d="m120 488a32 32 0 0 1 -32-32v-128h64v128a32 32 0 0 1 -32 32z" fill="#fec9a3"/><path d="m112 240h48v144h-48z" fill="#f98500"/><rect fill="#fec9a3" height="80" rx="16" width="80" x="88" y="272"/><path d="m152 272h-32a16 16 0 0 1 16 16v48a16 16 0 0 1 -16 16h32a16 16 0 0 0 16-16v-48a16 16 0 0 0 -16-16z" fill="#fec093"/><path d="m56 104h160v64h-160z" fill="#e0e0de"/><path d="m144 240h-16v-25.062l-98.266-14.038a16.074 16.074 0 0 1 -13.734-15.838v-41.062a16.016 16.016 0 0 1 16-16h24v16h-24v41.062l98.266 14.04a16.074 16.074 0 0 1 13.734 15.836z" fill="#c7c7c5"/><path d="m280 432h112v64h-112z" fill="#62a9e6"/><path d="m416 111.8a24.289 24.289 0 0 1 -28.27 23.86l-21.94-3.66a192.325 192.325 0 0 0 -63.12 0l-21.94 3.66a24.247 24.247 0 0 1 -26.5-32.92h160a24.361 24.361 0 0 1 1.77 9.06z" fill="#348fd9"/><path d="m414.23 70.737v32h-160v-32a48 48 0 0 1 48-48h64a47.982 47.982 0 0 1 15.18 2.46c.89.3 1.77.62 2.63.97a47.98 47.98 0 0 1 30.19 44.57z" fill="#3086cd"/><path d="m414.23 70.737v32h-136c48-16 81.59-44.03 105.81-76.57a47.98 47.98 0 0 1 30.19 44.57z" fill="#2d7dbf"/><path d="m416 111.8a24.289 24.289 0 0 1 -28.27 23.86l-21.94-3.66a191.346 191.346 0 0 0 -20.52-2.29c16.84-7.09 30.66-15.9 40.81-26.97h28.15a24.361 24.361 0 0 1 1.77 9.06z" fill="#3086cd"/><path d="m424 392h64v24h-64z" fill="#fec093"/><path d="m56 168h160v-56.406c-49.853 22.537-114.446 32.529-160 36.932z" fill="#d6d6d4"/><path d="m56 104h104v24h-104z" fill="#348fd9"/><path d="m152 104v64a16 16 0 0 0 32 0v32a16 16 0 0 0 32 0v-96z" fill="#348fd9"/><path d="m447.928 274.16-63.928-9.118v-14.6a72.919 72.919 0 0 0 27.831-40.942 134.219 134.219 0 0 0 3.931-25.5h.238a32 32 0 0 0 8.712-62.785 31.864 31.864 0 0 0 -.712-18.609v-30.606a56 56 0 0 0 -56-56h-64a56 56 0 0 0 -56 56v30.606a31.864 31.864 0 0 0 -.712 18.609 32 32 0 0 0 8.712 62.785h.238a133.907 133.907 0 0 0 3.916 25.442 71.2 71.2 0 0 0 27.846 40.968v15.1l-79.991 17.15a72.271 72.271 0 0 0 -32.009 16.011v-10.671a23.941 23.941 0 0 0 -8-17.869v-30.131a8 8 0 0 0 -8-8h-16v-17.062a16.079 16.079 0 0 0 -13.737-15.838l-98.263-14.038v-41.062h16v24a8 8 0 0 0 8 8h89.376a24 24 0 0 0 30.624 14.629v9.371a24 24 0 0 0 48 0v-96a8 8 0 0 0 -8-8h-160a8 8 0 0 0 -8 8v24h-16a16.019 16.019 0 0 0 -16 16v41.062a16.079 16.079 0 0 0 13.737 15.838l98.263 14.038v17.062h-16a8 8 0 0 0 -8 8v24a24.027 24.027 0 0 0 -24 24v164.72a43.157 43.157 0 0 0 41.231 43.192q1.022.046 2.036.046a43.289 43.289 0 0 0 32.667-14.842q.183-.21.353-.432l60.556-79.6 19.119-25.084h4.038v120h16v-120h160v120h16v-96h48v96h16v-166.4a56.386 56.386 0 0 0 -48.072-55.44zm-383.928-162.16h144v88a8 8 0 0 1 -16 0v-32a8 8 0 0 0 -16 0 8 8 0 0 1 -16 0v-40h-16v32h-80zm266 152h12a71.567 71.567 0 0 0 26-4.869v12.869a32 32 0 0 1 -64 0v-12.869a71.567 71.567 0 0 0 26 4.869zm6 56a47.989 47.989 0 0 0 40-21.507v61.507h-80v-61.507a47.989 47.989 0 0 0 40 21.507zm32.879-194.63a199.572 199.572 0 0 0 -65.758 0l-21.941 3.656a16.277 16.277 0 0 1 -18.905-17.026h147.45a16.277 16.277 0 0 1 -18.905 17.026zm63.121 26.63a16.037 16.037 0 0 1 -16 16v-31.9c.032-.032.066-.061.1-.092a16.015 16.015 0 0 1 15.9 15.992zm-168-80a40 40 0 0 1 40-40h64a40 40 0 0 1 40 40v24h-144zm-19.3 91.3a15.982 15.982 0 0 1 11.22-27.3l.08.082v31.918a16.1 16.1 0 0 1 -11.3-4.7zm30.973 42.234a119.266 119.266 0 0 1 -3.673-29.534v-31.383c6.167 2.383 16.7-.624 16.7-.624a12 12 0 1 0 20.712-3.413 183.537 183.537 0 0 1 53.172 0 12.006 12.006 0 1 0 20.712 3.413c5.574.929 10.95 1.778 16.6.65.606 10.4.105 20.942.105 31.357a119.292 119.292 0 0 1 -3.676 29.559c-6.253 24.441-28.82 42.441-54.325 42.441h-12a56.183 56.183 0 0 1 -54.33-42.463zm-155.673 154.466h32v16h-32zm0-112h32v16h-32zm-24 40a8.009 8.009 0 0 1 8-8h48a8.009 8.009 0 0 1 8 8v48a8.009 8.009 0 0 1 -8 8h-48a8.009 8.009 0 0 1 -8-8zm0 164.72v-94.1a23.885 23.885 0 0 0 8 1.38v24a8 8 0 0 0 8 8h32v64a23.9 23.9 0 0 1 -22.439 23.9 26.765 26.765 0 0 1 -17.584-7.882 27.11 27.11 0 0 1 -7.977-19.298zm64-3.342v-57.378a8 8 0 0 0 8-8v-15.823l31.692 29.031zm72-89.378a8 8 0 0 0 -6.363 3.151l-16.212 21.274-37.8-34.629a23.863 23.863 0 0 0 4.375-13.796v-13.244l.286-.443a56.379 56.379 0 0 1 35.06-24.008l28.654-6.105v67.8zm24 0v-71.224l24-5.166v76.39zm136 0v-77.633l24 3.428v74.205zm88 24h-48v-95.946l13.646 1.946a40.292 40.292 0 0 1 34.354 39.6z"/><path d="m272 392h16v16h-16z"/><path d="m384 392h16v16h-16z"/><path d="m272 488a8 8 0 0 0 8 8h112a8 8 0 0 0 8-8v-56a8 8 0 0 0 -8-8h-112a8 8 0 0 0 -8 8zm16-48h96v40h-96z"/><path d="m364 190.93-7.992-13.86a53.318 53.318 0 0 1 -26.635 6.93h-9.373v16h9.373a69.328 69.328 0 0 0 34.627-9.07z"/></g></svg>